<svg viewBox="0 0 753 381" xmlns="http://www.w3.org/2000/svg" width="753px" height="381px"><g fill="none" fill-rule="evenodd"><g transform="translate(-344 -116)" fill="#62CAFD"><g transform="translate(344 116)"><path d="m226.77 5.8174c-107.95 20.746-143.21 66.251-179.4 110.71-36.186 44.455-94.003 185.98 51.788 195.6 145.79 9.6193 218.45-36.695 386.77-21.512 168.32 15.182 240.68 43.83 260.17-69.731 19.481-113.56-128.89-108.95-198.27-154.02-69.385-45.073-214.86-81.454-321.06-61.046z" opacity=".16326"/><path transform="translate(376.41 216.72) scale(-1) translate(-376.41 -216.72)" d="m316.42 109.67c-107.95 20.746-241.64-28.679-277.82 15.777-36.186 44.455-86.426 244.05 59.365 253.67 145.79 9.6193 218.45-36.695 386.77-21.512 168.32 15.182 240.68 43.83 260.17-69.731 19.481-113.56 4.808-174.36-64.577-219.43-69.385-45.073-257.71 20.815-363.9 41.223z" opacity=".3"/></g></g></g></svg>
